# Blender v2.83 (sub 17) OBJ File: ''
# www.blender.org
mtllib smallsphere.mtl
o Sphere
v 0.000000 0.866025 -0.500000
v 0.000000 0.500000 -0.866025
v 0.000000 0.258819 -0.965926
v 0.000000 0.000000 -1.000000
v 0.000000 -0.258819 -0.965926
v 0.000000 -0.500000 -0.866026
v 0.000000 -0.707107 -0.707107
v 0.000000 -0.866025 -0.500000
v 0.000000 -0.965926 -0.258819
v 0.000000 -1.000000 -0.000000
v 0.129409 0.965926 -0.224144
v 0.250000 0.866025 -0.433013
v 0.353553 0.707107 -0.612372
v 0.433013 0.500000 -0.750000
v 0.482963 0.258819 -0.836516
v 0.500000 0.000000 -0.866025
v 0.482963 -0.258819 -0.836516
v 0.433013 -0.500000 -0.750000
v 0.353553 -0.707107 -0.612373
v 0.250000 -0.866025 -0.433013
v 0.129409 -0.965926 -0.224144
v 0.224144 0.965926 -0.129410
v 0.433012 0.866025 -0.250000
v 0.612372 0.707107 -0.353554
v 0.750000 0.500000 -0.433013
v 0.836516 0.258819 -0.482963
v 0.866025 0.000000 -0.500000
v 0.836516 -0.258819 -0.482963
v 0.750000 -0.500000 -0.433013
v 0.612372 -0.707107 -0.353554
v 0.433013 -0.866025 -0.250000
v 0.224144 -0.965926 -0.129410
v 0.258819 0.965926 -0.000000
v 0.500000 0.866025 -0.000000
v 0.707106 0.707107 -0.000000
v 0.866025 0.500000 -0.000000
v 0.965925 0.258819 -0.000000
v 1.000000 0.000000 -0.000000
v 0.965926 -0.258819 -0.000000
v 0.866025 -0.500000 -0.000000
v 0.707107 -0.707107 -0.000000
v 0.500000 -0.866025 -0.000000
v 0.258819 -0.965926 -0.000000
v 0.224144 0.965926 0.129409
v 0.433012 0.866025 0.249999
v 0.612372 0.707107 0.353553
v 0.750000 0.500000 0.433012
v 0.836516 0.258819 0.482962
v 0.866025 0.000000 0.499999
v 0.836516 -0.258819 0.482962
v 0.750000 -0.500000 0.433012
v 0.612372 -0.707107 0.353553
v 0.433012 -0.866025 0.250000
v 0.224144 -0.965926 0.129409
v 0.129409 0.965926 0.224143
v 0.250000 0.866025 0.433012
v 0.353553 0.707107 0.612372
v 0.433012 0.500000 0.749999
v 0.482963 0.258819 0.836516
v 0.500000 0.000000 0.866025
v 0.482963 -0.258819 0.836516
v 0.433013 -0.500000 0.749999
v 0.353553 -0.707107 0.612372
v 0.250000 -0.866025 0.433012
v 0.129409 -0.965926 0.224143
v 0.000000 0.965926 0.258818
v -0.000000 0.866025 0.499999
v -0.000000 0.707107 0.707106
v -0.000000 0.500000 0.866025
v -0.000000 0.258819 0.965925
v -0.000000 0.000000 0.999999
v -0.000000 -0.258819 0.965925
v -0.000000 -0.500000 0.866025
v -0.000000 -0.707107 0.707106
v -0.000000 -0.866025 0.499999
v 0.000000 -0.965926 0.258819
v -0.129409 0.965926 0.224143
v -0.250000 0.866025 0.433012
v -0.353553 0.707107 0.612372
v -0.433012 0.500000 0.749999
v -0.482963 0.258819 0.836516
v -0.500000 0.000000 0.866025
v -0.482963 -0.258819 0.836516
v -0.433013 -0.500000 0.749999
v -0.353553 -0.707107 0.612372
v -0.250000 -0.866025 0.433012
v -0.129409 -0.965926 0.224143
v -0.224143 0.965926 0.129409
v -0.433012 0.866025 0.249999
v -0.612372 0.707107 0.353553
v -0.750000 0.500000 0.433012
v -0.836516 0.258819 0.482962
v -0.866025 0.000000 0.499999
v -0.836516 -0.258819 0.482962
v -0.750000 -0.500000 0.433012
v -0.612372 -0.707107 0.353553
v -0.433013 -0.866025 0.249999
v -0.224144 -0.965926 0.129409
v -0.258819 0.965926 -0.000000
v -0.499999 0.866025 -0.000000
v -0.707106 0.707107 -0.000001
v -0.866025 0.500000 -0.000000
v -0.965925 0.258819 -0.000000
v -0.999999 0.000000 -0.000001
v -0.965925 -0.258819 -0.000000
v -0.866025 -0.500000 -0.000000
v -0.707107 -0.707107 -0.000000
v -0.500000 -0.866025 -0.000000
v -0.258819 -0.965926 -0.000000
v -0.224143 0.965926 -0.129410
v -0.433012 0.866025 -0.250000
v -0.612372 0.707107 -0.353554
v -0.749999 0.500000 -0.433013
v -0.836516 0.258819 -0.482963
v -0.866025 0.000000 -0.500000
v -0.836516 -0.258819 -0.482963
v -0.750000 -0.500000 -0.433013
v -0.612372 -0.707107 -0.353554
v -0.433012 -0.866025 -0.250000
v -0.224144 -0.965926 -0.129410
v -0.129409 0.965926 -0.224144
v -0.250000 0.866025 -0.433013
v -0.353553 0.707107 -0.612372
v -0.433012 0.500000 -0.750000
v -0.482963 0.258819 -0.836516
v -0.500000 0.000000 -0.866025
v -0.482963 -0.258819 -0.836516
v -0.433012 -0.500000 -0.750000
v -0.353553 -0.707107 -0.612373
v -0.250000 -0.866025 -0.433013
v -0.129409 -0.965926 -0.224144
v -0.000000 1.000000 -0.000000
v 0.000000 0.965926 -0.258819
v 0.000000 0.707107 -0.707107
vt 0.750000 0.583333
vt 0.666667 0.500000
vt 0.750000 0.500000
vt 0.750000 0.750000
vt 0.666667 0.833333
vt 0.666667 0.750000
vt 0.750000 0.250000
vt 0.666667 0.166667
vt 0.750000 0.166667
vt 0.666667 0.416667
vt 0.750000 0.416667
vt 0.666667 0.666667
vt 0.750000 0.666667
vt 0.666667 0.083333
vt 0.750000 0.083333
vt 0.750000 0.916667
vt 0.708333 1.000000
vt 0.666667 0.916667
vt 0.666667 0.333333
vt 0.750000 0.333333
vt 0.666667 0.583333
vt 0.708333 0.000000
vt 0.750000 0.833333
vt 0.666667 0.250000
vt 0.583333 0.750000
vt 0.583333 0.666667
vt 0.583334 0.083333
vt 0.625000 1.000000
vt 0.583334 0.916667
vt 0.583333 0.333333
vt 0.583333 0.583333
vt 0.625000 0.000000
vt 0.583333 0.833333
vt 0.583333 0.250000
vt 0.583333 0.500000
vt 0.583333 0.166667
vt 0.583333 0.416667
vt 0.500000 0.750000
vt 0.500000 0.166667
vt 0.500000 0.416667
vt 0.500000 0.666667
vt 0.500000 0.083333
vt 0.541667 1.000000
vt 0.500000 0.916667
vt 0.500000 0.333333
vt 0.500000 0.583333
vt 0.541667 0.000000
vt 0.500000 0.833333
vt 0.500000 0.250000
vt 0.500000 0.500000
vt 0.416667 0.583333
vt 0.458334 0.000000
vt 0.416667 0.083333
vt 0.416667 0.833333
vt 0.416667 0.250000
vt 0.416667 0.500000
vt 0.416667 0.750000
vt 0.416667 0.166667
vt 0.416667 0.416667
vt 0.416667 0.666667
vt 0.458334 1.000000
vt 0.416667 0.916667
vt 0.416667 0.333333
vt 0.333333 0.666667
vt 0.333333 0.083333
vt 0.375000 1.000000
vt 0.333333 0.916667
vt 0.333333 0.416667
vt 0.333333 0.333333
vt 0.333333 0.583333
vt 0.375000 0.000000
vt 0.333333 0.833334
vt 0.333333 0.250000
vt 0.333333 0.500000
vt 0.333333 0.750000
vt 0.333333 0.166667
vt 0.250000 0.583333
vt 0.250000 0.500000
vt 0.250000 0.750000
vt 0.250000 0.250000
vt 0.250000 0.166666
vt 0.250000 0.416667
vt 0.250000 0.666667
vt 0.250000 0.083333
vt 0.291667 1.000000
vt 0.250000 0.916667
vt 0.250000 0.333333
vt 0.291667 0.000000
vt 0.250000 0.833334
vt 0.166667 0.666667
vt 0.166667 0.583333
vt 0.208333 0.000000
vt 0.166667 0.083333
vt 0.166667 0.916667
vt 0.166667 0.833334
vt 0.166667 0.250000
vt 0.166667 0.500000
vt 0.166667 0.750000
vt 0.166667 0.166667
vt 0.166667 0.416667
vt 0.208333 1.000000
vt 0.166667 0.333333
vt 0.083333 0.416667
vt 0.083333 0.666667
vt 0.083333 0.166667
vt 0.083333 0.083333
vt 0.125000 1.000000
vt 0.083333 0.916667
vt 0.083333 0.333333
vt 0.083333 0.583333
vt 0.125000 0.000000
vt 0.083333 0.833333
vt 0.083333 0.250000
vt 0.083333 0.500000
vt 0.083333 0.750000
vt 0.000000 0.583333
vt 0.000000 0.500000
vt 0.000000 0.750000
vt 0.000000 0.250000
vt 0.000000 0.166667
vt 0.000000 0.416667
vt 0.000000 0.666667
vt 0.000000 0.083333
vt 0.041666 1.000000
vt 0.000000 0.916667
vt 0.000000 0.333333
vt 0.041666 0.000000
vt 0.000000 0.833333
vt 1.000000 0.416667
vt 0.916667 0.333333
vt 1.000000 0.333333
vt 1.000000 0.666667
vt 0.916667 0.583333
vt 1.000000 0.583333
vt 0.958333 0.000000
vt 1.000000 0.083333
vt 0.916666 0.083333
vt 1.000000 0.916667
vt 0.916667 0.833333
vt 1.000000 0.833333
vt 0.916667 0.250000
vt 1.000000 0.250000
vt 1.000000 0.500000
vt 0.916667 0.500000
vt 0.916667 0.750000
vt 1.000000 0.750000
vt 1.000000 0.166667
vt 0.916667 0.166667
vt 0.916667 0.416667
vt 0.916667 0.666667
vt 0.958333 1.000000
vt 0.916666 0.916667
vt 0.833333 0.416667
vt 0.833333 0.666667
vt 0.833333 0.166667
vt 0.833333 0.083333
vt 0.875000 1.000000
vt 0.833333 0.916667
vt 0.833333 0.333333
vt 0.833333 0.583333
vt 0.875000 0.000000
vt 0.833333 0.833333
vt 0.833333 0.250000
vt 0.833333 0.500000
vt 0.833333 0.750000
vt 0.791667 1.000000
vt 0.791667 0.000000
vn 0.0000 0.2536 -0.9673
vn 0.5000 0.0000 -0.8660
vn 0.0000 0.0000 -1.0000
vn 0.0000 0.6964 -0.7176
vn 0.2579 0.8566 -0.4468
vn 0.3588 0.6964 -0.6214
vn 0.0000 -0.6964 -0.7176
vn 0.2579 -0.8566 -0.4468
vn 0.0000 -0.8566 -0.5159
vn 0.4836 -0.2536 -0.8377
vn 0.0000 -0.2536 -0.9673
vn 0.4356 0.4909 -0.7545
vn 0.0000 0.4909 -0.8712
vn 0.1394 -0.9603 -0.2415
vn 0.0000 -0.9603 -0.2788
vn 0.0000 0.9603 -0.2788
vn 0.0000 1.0000 0.0000
vn 0.1394 0.9603 -0.2415
vn 0.4356 -0.4909 -0.7545
vn 0.0000 -0.4909 -0.8712
vn 0.4836 0.2536 -0.8377
vn 0.0000 -1.0000 0.0000
vn 0.0000 0.8566 -0.5159
vn 0.3588 -0.6964 -0.6214
vn 0.6214 0.6964 -0.3588
vn 0.7545 0.4909 -0.4356
vn 0.2415 -0.9603 -0.1394
vn 0.2415 0.9603 -0.1394
vn 0.7545 -0.4909 -0.4356
vn 0.8377 0.2536 -0.4836
vn 0.4468 0.8566 -0.2579
vn 0.6214 -0.6964 -0.3588
vn 0.8660 0.0000 -0.5000
vn 0.4468 -0.8566 -0.2579
vn 0.8377 -0.2536 -0.4836
vn 0.7176 0.6964 0.0000
vn 0.5159 -0.8566 0.0000
vn 0.9673 -0.2536 0.0000
vn 0.8712 0.4909 0.0000
vn 0.2788 -0.9603 0.0000
vn 0.2788 0.9603 0.0000
vn 0.8712 -0.4909 0.0000
vn 0.9673 0.2536 0.0000
vn 0.5159 0.8566 0.0000
vn 0.7176 -0.6964 0.0000
vn 1.0000 0.0000 0.0000
vn 0.8377 0.2536 0.4836
vn 0.2415 -0.9603 0.1394
vn 0.4468 0.8566 0.2579
vn 0.6214 -0.6964 0.3588
vn 0.8660 0.0000 0.5000
vn 0.6214 0.6964 0.3588
vn 0.4468 -0.8566 0.2579
vn 0.8377 -0.2536 0.4836
vn 0.7545 0.4909 0.4356
vn 0.2415 0.9603 0.1394
vn 0.7545 -0.4909 0.4356
vn 0.4356 0.4909 0.7545
vn 0.1394 -0.9603 0.2415
vn 0.1394 0.9603 0.2415
vn 0.4836 -0.2536 0.8377
vn 0.4356 -0.4909 0.7545
vn 0.4836 0.2536 0.8377
vn 0.2579 0.8566 0.4468
vn 0.3588 -0.6964 0.6214
vn 0.5000 0.0000 0.8660
vn 0.3588 0.6964 0.6214
vn 0.2579 -0.8566 0.4468
vn 0.0000 0.2536 0.9673
vn 0.0000 0.0000 1.0000
vn 0.0000 0.6964 0.7176
vn 0.0000 -0.6964 0.7176
vn 0.0000 -0.8566 0.5159
vn 0.0000 -0.2536 0.9673
vn 0.0000 0.4909 0.8712
vn 0.0000 -0.9603 0.2788
vn 0.0000 0.9603 0.2788
vn 0.0000 -0.4909 0.8712
vn 0.0000 0.8566 0.5159
vn -0.4356 0.4909 0.7545
vn -0.4836 0.2536 0.8377
vn -0.1394 -0.9603 0.2415
vn -0.1394 0.9603 0.2415
vn -0.2579 0.8566 0.4468
vn -0.3588 -0.6964 0.6214
vn -0.5000 0.0000 0.8660
vn -0.3588 0.6964 0.6214
vn -0.2579 -0.8566 0.4468
vn -0.4836 -0.2536 0.8377
vn -0.4356 -0.4909 0.7545
vn -0.8377 -0.2536 0.4836
vn -0.7545 0.4909 0.4356
vn -0.4468 -0.8566 0.2579
vn -0.2415 -0.9603 0.1394
vn -0.2415 0.9603 0.1394
vn -0.7545 -0.4909 0.4356
vn -0.8377 0.2536 0.4836
vn -0.4468 0.8566 0.2579
vn -0.6214 -0.6964 0.3588
vn -0.8660 0.0000 0.5000
vn -0.6214 0.6964 0.3588
vn -0.9673 0.2536 0.0000
vn -1.0000 0.0000 0.0000
vn -0.7176 0.6964 0.0000
vn -0.7176 -0.6964 0.0000
vn -0.5159 -0.8566 0.0000
vn -0.9673 -0.2536 0.0000
vn -0.8712 0.4909 0.0000
vn -0.2788 -0.9603 0.0000
vn -0.2788 0.9603 0.0000
vn -0.8712 -0.4909 0.0000
vn -0.5159 0.8566 0.0000
vn -0.7545 -0.4909 -0.4356
vn -0.8377 0.2536 -0.4836
vn -0.2415 -0.9603 -0.1394
vn -0.4468 0.8566 -0.2579
vn -0.6214 -0.6964 -0.3588
vn -0.8660 0.0000 -0.5000
vn -0.6214 0.6964 -0.3588
vn -0.4468 -0.8566 -0.2579
vn -0.8377 -0.2536 -0.4836
vn -0.7545 0.4909 -0.4356
vn -0.2415 0.9603 -0.1394
vn -0.4836 -0.2536 -0.8377
vn -0.4356 0.4909 -0.7545
vn -0.2579 -0.8566 -0.4468
vn -0.1394 -0.9603 -0.2415
vn -0.1394 0.9603 -0.2415
vn -0.4356 -0.4909 -0.7545
vn -0.4836 0.2536 -0.8377
vn -0.2579 0.8566 -0.4468
vn -0.3588 -0.6964 -0.6214
vn -0.5000 0.0000 -0.8660
vn -0.3588 0.6964 -0.6214
usemtl None
s 1
f 3/1/1 16/2/2 4/3/3
f 134/4/4 12/5/5 13/6/6
f 7/7/7 20/8/8 8/9/9
f 4/3/3 17/10/10 5/11/11
f 134/4/4 14/12/12 2/13/13
f 8/9/9 21/14/14 9/15/15
f 133/16/16 132/17/17 11/18/18
f 5/11/11 18/19/19 6/20/20
f 3/1/1 14/12/12 15/21/21
f 10/22/22 9/15/15 21/14/14
f 133/16/16 12/5/5 1/23/23
f 6/20/20 19/24/24 7/7/7
f 14/12/12 24/25/25 25/26/26
f 20/8/8 32/27/27 21/14/14
f 11/18/18 132/28/17 22/29/28
f 17/10/10 29/30/29 18/19/19
f 15/21/21 25/26/26 26/31/30
f 10/32/22 21/14/14 32/27/27
f 12/5/5 22/29/28 23/33/31
f 18/19/19 30/34/32 19/24/24
f 15/21/21 27/35/33 16/2/2
f 12/5/5 24/25/25 13/6/6
f 19/24/24 31/36/34 20/8/8
f 16/2/2 28/37/35 17/10/10
f 23/33/31 35/38/36 24/25/25
f 30/34/32 42/39/37 31/36/34
f 27/35/33 39/40/38 28/37/35
f 24/25/25 36/41/39 25/26/26
f 32/27/27 42/39/37 43/42/40
f 22/29/28 132/43/17 33/44/41
f 29/30/29 39/40/38 40/45/42
f 25/26/26 37/46/43 26/31/30
f 10/47/22 32/27/27 43/42/40
f 22/29/28 34/48/44 23/33/31
f 29/30/29 41/49/45 30/34/32
f 26/31/30 38/50/46 27/35/33
f 36/41/39 48/51/47 37/46/43
f 10/52/22 43/42/40 54/53/48
f 33/44/41 45/54/49 34/48/44
f 40/45/42 52/55/50 41/49/45
f 37/46/43 49/56/51 38/50/46
f 34/48/44 46/57/52 35/38/36
f 41/49/45 53/58/53 42/39/37
f 38/50/46 50/59/54 39/40/38
f 35/38/36 47/60/55 36/41/39
f 42/39/37 54/53/48 43/42/40
f 33/44/41 132/61/17 44/62/56
f 40/45/42 50/59/54 51/63/57
f 46/57/52 58/64/58 47/60/55
f 53/58/53 65/65/59 54/53/48
f 44/62/56 132/66/17 55/67/60
f 51/63/57 61/68/61 62/69/62
f 47/60/55 59/70/63 48/51/47
f 10/71/22 54/53/48 65/65/59
f 44/62/56 56/72/64 45/54/49
f 51/63/57 63/73/65 52/55/50
f 49/56/51 59/70/63 60/74/66
f 45/54/49 57/75/67 46/57/52
f 53/58/53 63/73/65 64/76/68
f 49/56/51 61/68/61 50/59/54
f 60/74/66 70/77/69 71/78/70
f 56/72/64 68/79/71 57/75/67
f 64/76/68 74/80/72 75/81/73
f 60/74/66 72/82/74 61/68/61
f 57/75/67 69/83/75 58/64/58
f 65/65/59 75/81/73 76/84/76
f 55/67/60 132/85/17 66/86/77
f 61/68/61 73/87/78 62/69/62
f 58/64/58 70/77/69 59/70/63
f 10/88/22 65/65/59 76/84/76
f 55/67/60 67/89/79 56/72/64
f 62/69/62 74/80/72 63/73/65
f 70/77/69 80/90/80 81/91/81
f 10/92/22 76/84/76 87/93/82
f 67/89/79 77/94/83 78/95/84
f 73/87/78 85/96/85 74/80/72
f 71/78/70 81/91/81 82/97/86
f 67/89/79 79/98/87 68/79/71
f 74/80/72 86/99/88 75/81/73
f 71/78/70 83/100/89 72/82/74
f 68/79/71 80/90/80 69/83/75
f 76/84/76 86/99/88 87/93/82
f 66/86/77 132/101/17 77/94/83
f 72/82/74 84/102/90 73/87/78
f 82/97/86 94/103/91 83/100/89
f 79/98/87 91/104/92 80/90/80
f 87/93/82 97/105/93 98/106/94
f 77/94/83 132/107/17 88/108/95
f 83/100/89 95/109/96 84/102/90
f 80/90/80 92/110/97 81/91/81
f 10/111/22 87/93/82 98/106/94
f 77/94/83 89/112/98 78/95/84
f 84/102/90 96/113/99 85/96/85
f 82/97/86 92/110/97 93/114/100
f 78/95/84 90/115/101 79/98/87
f 85/96/85 97/105/93 86/99/88
f 93/114/100 103/116/102 104/117/103
f 89/112/98 101/118/104 90/115/101
f 97/105/93 107/119/105 108/120/106
f 93/114/100 105/121/107 94/103/91
f 90/115/101 102/122/108 91/104/92
f 97/105/93 109/123/109 98/106/94
f 88/108/95 132/124/17 99/125/110
f 94/103/91 106/126/111 95/109/96
f 91/104/92 103/116/102 92/110/97
f 10/127/22 98/106/94 109/123/109
f 88/108/95 100/128/112 89/112/98
f 95/109/96 107/119/105 96/113/99
f 105/129/107 117/130/113 106/131/111
f 102/132/108 114/133/114 103/134/102
f 10/135/22 109/136/109 120/137/115
f 99/138/110 111/139/116 100/140/112
f 106/131/111 118/141/117 107/142/105
f 104/143/103 114/133/114 115/144/118
f 100/140/112 112/145/119 101/146/104
f 108/147/106 118/141/117 119/148/120
f 104/143/103 116/149/121 105/129/107
f 101/146/104 113/150/122 102/132/108
f 108/147/106 120/137/115 109/136/109
f 99/138/110 132/151/17 110/152/123
f 115/144/118 127/153/124 116/149/121
f 112/145/119 124/154/125 113/150/122
f 120/137/115 130/155/126 131/156/127
f 110/152/123 132/157/17 121/158/128
f 116/149/121 128/159/129 117/130/113
f 114/133/114 124/154/125 125/160/130
f 10/161/22 120/137/115 131/156/127
f 110/152/123 122/162/131 111/139/116
f 117/130/113 129/163/132 118/141/117
f 114/133/114 126/164/133 115/144/118
f 112/145/119 122/162/131 123/165/134
f 119/148/120 129/163/132 130/155/126
f 128/159/129 7/7/7 129/163/132
f 125/160/130 4/3/3 126/164/133
f 122/162/131 134/4/4 123/165/134
f 129/163/132 8/9/9 130/155/126
f 126/164/133 5/11/11 127/153/124
f 123/165/134 2/13/13 124/154/125
f 130/155/126 9/15/15 131/156/127
f 121/158/128 132/166/17 133/16/16
f 127/153/124 6/20/20 128/159/129
f 124/154/125 3/1/1 125/160/130
f 10/167/22 131/156/127 9/15/15
f 121/158/128 1/23/23 122/162/131
f 3/1/1 15/21/21 16/2/2
f 134/4/4 1/23/23 12/5/5
f 7/7/7 19/24/24 20/8/8
f 4/3/3 16/2/2 17/10/10
f 134/4/4 13/6/6 14/12/12
f 8/9/9 20/8/8 21/14/14
f 5/11/11 17/10/10 18/19/19
f 3/1/1 2/13/13 14/12/12
f 133/16/16 11/18/18 12/5/5
f 6/20/20 18/19/19 19/24/24
f 14/12/12 13/6/6 24/25/25
f 20/8/8 31/36/34 32/27/27
f 17/10/10 28/37/35 29/30/29
f 15/21/21 14/12/12 25/26/26
f 12/5/5 11/18/18 22/29/28
f 18/19/19 29/30/29 30/34/32
f 15/21/21 26/31/30 27/35/33
f 12/5/5 23/33/31 24/25/25
f 19/24/24 30/34/32 31/36/34
f 16/2/2 27/35/33 28/37/35
f 23/33/31 34/48/44 35/38/36
f 30/34/32 41/49/45 42/39/37
f 27/35/33 38/50/46 39/40/38
f 24/25/25 35/38/36 36/41/39
f 32/27/27 31/36/34 42/39/37
f 29/30/29 28/37/35 39/40/38
f 25/26/26 36/41/39 37/46/43
f 22/29/28 33/44/41 34/48/44
f 29/30/29 40/45/42 41/49/45
f 26/31/30 37/46/43 38/50/46
f 36/41/39 47/60/55 48/51/47
f 33/44/41 44/62/56 45/54/49
f 40/45/42 51/63/57 52/55/50
f 37/46/43 48/51/47 49/56/51
f 34/48/44 45/54/49 46/57/52
f 41/49/45 52/55/50 53/58/53
f 38/50/46 49/56/51 50/59/54
f 35/38/36 46/57/52 47/60/55
f 42/39/37 53/58/53 54/53/48
f 40/45/42 39/40/38 50/59/54
f 46/57/52 57/75/67 58/64/58
f 53/58/53 64/76/68 65/65/59
f 51/63/57 50/59/54 61/68/61
f 47/60/55 58/64/58 59/70/63
f 44/62/56 55/67/60 56/72/64
f 51/63/57 62/69/62 63/73/65
f 49/56/51 48/51/47 59/70/63
f 45/54/49 56/72/64 57/75/67
f 53/58/53 52/55/50 63/73/65
f 49/56/51 60/74/66 61/68/61
f 60/74/66 59/70/63 70/77/69
f 56/72/64 67/89/79 68/79/71
f 64/76/68 63/73/65 74/80/72
f 60/74/66 71/78/70 72/82/74
f 57/75/67 68/79/71 69/83/75
f 65/65/59 64/76/68 75/81/73
f 61/68/61 72/82/74 73/87/78
f 58/64/58 69/83/75 70/77/69
f 55/67/60 66/86/77 67/89/79
f 62/69/62 73/87/78 74/80/72
f 70/77/69 69/83/75 80/90/80
f 67/89/79 66/86/77 77/94/83
f 73/87/78 84/102/90 85/96/85
f 71/78/70 70/77/69 81/91/81
f 67/89/79 78/95/84 79/98/87
f 74/80/72 85/96/85 86/99/88
f 71/78/70 82/97/86 83/100/89
f 68/79/71 79/98/87 80/90/80
f 76/84/76 75/81/73 86/99/88
f 72/82/74 83/100/89 84/102/90
f 82/97/86 93/114/100 94/103/91
f 79/98/87 90/115/101 91/104/92
f 87/93/82 86/99/88 97/105/93
f 83/100/89 94/103/91 95/109/96
f 80/90/80 91/104/92 92/110/97
f 77/94/83 88/108/95 89/112/98
f 84/102/90 95/109/96 96/113/99
f 82/97/86 81/91/81 92/110/97
f 78/95/84 89/112/98 90/115/101
f 85/96/85 96/113/99 97/105/93
f 93/114/100 92/110/97 103/116/102
f 89/112/98 100/128/112 101/118/104
f 97/105/93 96/113/99 107/119/105
f 93/114/100 104/117/103 105/121/107
f 90/115/101 101/118/104 102/122/108
f 97/105/93 108/120/106 109/123/109
f 94/103/91 105/121/107 106/126/111
f 91/104/92 102/122/108 103/116/102
f 88/108/95 99/125/110 100/128/112
f 95/109/96 106/126/111 107/119/105
f 105/129/107 116/149/121 117/130/113
f 102/132/108 113/150/122 114/133/114
f 99/138/110 110/152/123 111/139/116
f 106/131/111 117/130/113 118/141/117
f 104/143/103 103/134/102 114/133/114
f 100/140/112 111/139/116 112/145/119
f 108/147/106 107/142/105 118/141/117
f 104/143/103 115/144/118 116/149/121
f 101/146/104 112/145/119 113/150/122
f 108/147/106 119/148/120 120/137/115
f 115/144/118 126/164/133 127/153/124
f 112/145/119 123/165/134 124/154/125
f 120/137/115 119/148/120 130/155/126
f 116/149/121 127/153/124 128/159/129
f 114/133/114 113/150/122 124/154/125
f 110/152/123 121/158/128 122/162/131
f 117/130/113 128/159/129 129/163/132
f 114/133/114 125/160/130 126/164/133
f 112/145/119 111/139/116 122/162/131
f 119/148/120 118/141/117 129/163/132
f 128/159/129 6/20/20 7/7/7
f 125/160/130 3/1/1 4/3/3
f 122/162/131 1/23/23 134/4/4
f 129/163/132 7/7/7 8/9/9
f 126/164/133 4/3/3 5/11/11
f 123/165/134 134/4/4 2/13/13
f 130/155/126 8/9/9 9/15/15
f 127/153/124 5/11/11 6/20/20
f 124/154/125 2/13/13 3/1/1
f 121/158/128 133/16/16 1/23/23
